<svg width="60" height="60" viewBox="0 0 60 60" fill="none" xmlns="http://www.w3.org/2000/svg">
<path d="M6.13721 8.52517C6.13721 7.13056 7.26776 6 8.66238 6H29.8629C43.1177 6 53.8629 16.8139 53.8629 30.0688C53.8629 43.2479 43.1791 54 30.0001 54C16.821 54 6.13721 43.3162 6.13721 30.1371V8.52517Z" fill="#F8DB46"/>
<mask id="mask0_76_221" style="mask-type:alpha" maskUnits="userSpaceOnUse" x="7" y="7" width="46" height="46">
<path d="M6.13721 8.52517C6.13721 7.13056 7.26776 6 8.66238 6H29.8629C43.1177 6 53.8629 16.8139 53.8629 30.0688C53.8629 43.2479 43.1791 54 30.0001 54C16.821 54 6.13721 43.3162 6.13721 30.1371V8.52517Z" fill="#F8DB46"/>
</mask>
<g mask="url(#mask0_76_221)">
<path d="M23.7713 33.1349C23.7713 29.6103 18.3548 32.3968 15.0721 30.5118C11.7894 28.6267 10.066 21.9876 11.3791 21.0857C12.6922 20.1839 18.6011 19.5281 18.6011 19.5281C18.6011 19.5281 20.8465 15.1859 23.5252 14.2002C26.2038 13.2145 29.6448 13.0647 33.0095 13.932C36.3743 14.7993 38.7729 18.8907 38.7729 18.8907L49.2539 35.8617L46.9358 50.2476L23.7713 56.2474V33.1349Z" fill="#FFF9E1"/>
<path fill-rule="evenodd" clip-rule="evenodd" d="M23.2578 13.4738C26.1017 12.4273 29.7049 12.2808 33.2027 13.1824C35.1062 13.6731 36.6732 15.0488 37.7279 16.2182C38.2643 16.813 38.689 17.3779 38.9801 17.7946C39.126 18.0034 39.2391 18.1761 39.3167 18.2981C39.3555 18.3592 39.3854 18.4077 39.4062 18.4418C39.4166 18.4589 39.4247 18.4723 39.4305 18.482L39.4353 18.4901L50.0641 35.7003L47.6196 50.8702L22.9971 57.2476V33.135C22.9971 32.7915 22.9312 32.5939 22.8635 32.4778C22.8 32.369 22.7049 32.2796 22.5433 32.2033C22.1668 32.0257 21.5603 31.9723 20.6617 31.9827C20.4322 31.9853 20.1849 31.9921 19.926 31.9991C19.2508 32.0176 18.4962 32.0382 17.7693 31.994C16.7459 31.9318 15.6555 31.7395 14.6866 31.1831C12.7997 30.0996 11.467 27.7489 10.7686 25.6774C10.4131 24.6231 10.1985 23.5743 10.1669 22.702C10.1512 22.2677 10.1795 21.8444 10.278 21.4737C10.3734 21.1142 10.5614 20.7083 10.9408 20.4476C11.3966 20.1346 12.1393 19.8981 12.8703 19.7118C13.6383 19.516 14.5235 19.3454 15.3538 19.2054C16.1865 19.0651 16.9759 18.9536 17.5564 18.8772C17.7743 18.8485 17.9632 18.8248 18.1143 18.8063C18.1737 18.7015 18.2457 18.5772 18.3292 18.4373C18.591 17.9991 18.9696 17.403 19.4368 16.7728C20.3428 15.5508 21.689 14.0511 23.2578 13.4738ZM18.6864 20.2976L18.6711 20.2993C18.6651 20.3 18.6575 20.3009 18.6482 20.3019C18.6408 20.3028 18.6324 20.3037 18.623 20.3048C18.5806 20.3097 18.5177 20.3171 18.4369 20.3267C18.2753 20.3461 18.0423 20.3749 17.7583 20.4123C17.1898 20.487 16.4199 20.5958 15.6112 20.7322C14.8001 20.8689 13.9619 21.0313 13.2527 21.2121C12.5283 21.3968 12.0469 21.5753 11.8357 21.7117C11.826 21.7269 11.8006 21.7722 11.7743 21.8712C11.7285 22.0435 11.7017 22.3016 11.7142 22.646C11.739 23.3311 11.9142 24.229 12.2357 25.1828C12.8914 27.1276 14.0617 29.039 15.4576 29.8405C16.13 30.2266 16.9478 30.3929 17.8632 30.4486C18.518 30.4884 19.1619 30.4707 19.8114 30.4529C20.0874 30.4453 20.3644 30.4377 20.6437 30.4345C21.5095 30.4245 22.4623 30.4531 23.2041 30.8032C23.6015 30.9908 23.9552 31.2767 24.2008 31.6975C24.4421 32.111 24.5454 32.5973 24.5454 33.135V55.2473L46.252 49.6251L48.4438 36.0232L38.1096 19.29L38.1054 19.2829L38.1014 19.2761C38.0978 19.2702 38.0921 19.2606 38.0841 19.2475C38.0681 19.2212 38.0432 19.1809 38.0099 19.1284C37.9431 19.0234 37.8425 18.8697 37.7109 18.6813C37.4472 18.3037 37.0619 17.7916 36.5781 17.2551C35.5923 16.162 34.2775 15.0583 32.8163 14.6817C29.5846 13.8487 26.306 14.0019 23.7925 14.9268C22.6827 15.3352 21.5669 16.4994 20.6805 17.6949C20.2515 18.2735 19.9014 18.8246 19.6584 19.2313C19.5372 19.4342 19.4434 19.6 19.3805 19.7139C19.3491 19.7708 19.3254 19.8147 19.31 19.8436C19.3046 19.8537 19.3002 19.862 19.2969 19.8683C19.2954 19.8711 19.2941 19.8736 19.293 19.8756L19.2893 19.8828L19.2888 19.8838L19.0984 20.2519L18.6864 20.2976Z" fill="#1E1F27"/>
<path d="M38.2515 15.65L32.5617 13.8454C29.8258 12.5521 30.31 22.4405 32.4683 23.3303C34.6266 24.22 41.0408 16.7422 38.2515 15.65Z" fill="#FFF9E1"/>
<path fill-rule="evenodd" clip-rule="evenodd" d="M32.4021 22.2123C32.5784 22.5025 32.7132 22.5939 32.7634 22.6146C32.7938 22.6271 32.9224 22.6576 33.2132 22.5638C33.4933 22.4734 33.8411 22.2933 34.2357 22.0216C35.0224 21.4799 35.886 20.6504 36.6121 19.748C37.3462 18.8359 37.8826 17.92 38.0844 17.2211C38.1859 16.8699 38.1794 16.653 38.1478 16.5418C38.13 16.4793 38.1042 16.4281 37.9887 16.3788L32.278 14.5676L32.2309 14.5453C32.1436 14.5041 32.1011 14.5031 32.0946 14.5032C32.0946 14.5032 32.0924 14.5027 32.0854 14.5069C32.0481 14.5296 31.9334 14.6333 31.8075 14.9459C31.5597 15.5613 31.43 16.5807 31.4537 17.7536C31.477 18.9087 31.6469 20.1173 31.9298 21.0708C32.0716 21.5487 32.2337 21.9352 32.4021 22.2123ZM32.8402 13.1216C32.3233 12.8933 31.7716 12.8862 31.282 13.1834C30.8305 13.4575 30.5511 13.9211 30.3713 14.3676C30.0078 15.2703 29.8805 16.536 29.9057 17.7848C29.9312 19.0513 30.1161 20.4009 30.4455 21.5112C30.6099 22.0653 30.8182 22.5872 31.0788 23.0162C31.3314 23.432 31.6839 23.8442 32.1733 24.046C32.6824 24.2559 33.2263 24.1864 33.6885 24.0373C34.1614 23.8847 34.6471 23.6181 35.1137 23.2968C36.0495 22.6525 37.0198 21.7111 37.8184 20.7187C38.609 19.7361 39.2881 18.6333 39.5719 17.6507C39.7133 17.1612 39.7801 16.6217 39.637 16.1184C39.4811 15.5697 39.099 15.1505 38.5338 14.9292L38.51 14.9198L32.8402 13.1216Z" fill="#1E1F27"/>
<path d="M25.5273 19.2939C25.5273 19.8588 25.1305 20.3166 24.641 20.3166C24.1515 20.3166 23.7547 19.8588 23.7547 19.2939C23.7547 18.7291 24.1515 18.2712 24.641 18.2712C25.1305 18.2712 25.5273 18.7291 25.5273 19.2939Z" fill="#1E1F27"/>
<path d="M30.8954 43.1202C30.0861 42.5811 27.664 39.1691 27.0271 38.0461C28.0012 36.5113 29.3875 34.9017 29.7246 32.9926C29.9154 31.9126 31.5532 30.6443 33.0269 29.9981C32.1706 29.1045 31.82 28.2175 31.5952 27.5437C30.8458 25.2977 36.7359 26.5681 38.3095 28.3648C42.6107 28.3648 44.1334 30.9712 45.8194 32.9926C47.1681 34.6097 52.4158 32.6983 53.6896 32.6608L53.8899 61.9242L37.758 61.0829C37.6456 58.1256 37.9359 48.7774 37.9359 47.8612C37.9359 46.4643 38.5517 44.0647 36.2314 43.1202C33.429 41.9794 31.9069 43.794 30.8954 43.1202Z" fill="#FEF7C1"/>
<path fill-rule="evenodd" clip-rule="evenodd" d="M38.6392 27.5956C38.1471 27.1384 37.4835 26.7549 36.8042 26.4547C35.9842 26.0923 35.0613 25.8162 34.2081 25.6746C33.3856 25.5381 32.5087 25.5059 31.8462 25.743C31.501 25.8665 31.1314 26.0939 30.9181 26.5017C30.6996 26.9194 30.7231 27.3758 30.8609 27.7887C31.039 28.3224 31.3015 29.0125 31.8168 29.7443C31.3101 30.0351 30.817 30.3774 30.389 30.7466C29.7416 31.3053 29.1065 32.0424 28.9624 32.858C28.8183 33.674 28.4439 34.4572 27.9548 35.2552C27.7111 35.6529 27.4461 36.0429 27.174 36.4394C27.1451 36.4816 27.116 36.5239 27.0868 36.5663C26.8457 36.9172 26.5992 37.2758 26.3736 37.6313L26.1246 38.0237L26.3539 38.428C26.6958 39.031 27.4828 40.1946 28.2748 41.2631C28.6737 41.8012 29.0833 42.3281 29.4491 42.7589C29.7921 43.163 30.1604 43.5607 30.4663 43.7645C30.9576 44.0918 31.4789 44.0795 31.8954 44.0066C32.1503 43.962 32.459 43.8729 32.7396 43.792C32.8643 43.756 32.9835 43.7217 33.0899 43.6935C33.8566 43.4907 34.751 43.3534 35.9396 43.8372C36.3956 44.0228 36.669 44.2618 36.8447 44.5101C37.0249 44.7648 37.133 45.0733 37.1886 45.4378C37.2448 45.8066 37.2434 46.2055 37.2227 46.6259C37.2166 46.7508 37.208 46.886 37.1992 47.0244C37.1809 47.3108 37.1618 47.6107 37.1618 47.8612C37.1618 48.0713 37.1438 48.8169 37.1184 49.8637C37.0422 53.0125 36.9 58.887 36.9845 61.1123L37.0114 61.8192L54.6697 62.7401L54.4584 31.8638L53.667 31.8871C53.2528 31.8992 52.5931 32.051 51.9421 32.2007L51.9388 32.2015C51.8924 32.2121 51.8457 32.2229 51.7985 32.2338C51.1348 32.3866 50.3933 32.5574 49.6522 32.6842C48.8527 32.8209 48.1016 32.8974 47.4915 32.8559C46.8547 32.8127 46.5443 32.653 46.414 32.4968C46.2417 32.2902 46.0644 32.0679 45.8798 31.8364C45.2229 31.0125 44.4736 30.0729 43.5292 29.3165C42.3273 28.3539 40.796 27.6598 38.6392 27.5956ZM32.3092 27.2249C32.313 27.2434 32.3193 27.2677 32.3296 27.2987C32.538 27.9233 32.8431 28.6873 33.586 29.4626L34.3524 30.2623L33.3379 30.7072C32.6665 31.0015 31.9554 31.44 31.4005 31.9188C30.8129 32.4259 30.5338 32.8629 30.4871 33.1273C30.294 34.2204 29.8067 35.1965 29.2749 36.0643C29.0081 36.4995 28.7228 36.9189 28.4505 37.3156C28.4213 37.3581 28.3923 37.4004 28.3634 37.4423C28.2172 37.6551 28.076 37.8606 27.9412 38.0622C28.3084 38.6447 28.9017 39.5088 29.5186 40.3412C29.9061 40.8638 30.2935 41.3613 30.6294 41.7569C30.988 42.1793 31.226 42.4102 31.3246 42.4759L31.3258 42.4767C31.3417 42.4875 31.3937 42.5226 31.6284 42.4815C31.8047 42.4507 31.972 42.4019 32.1915 42.3379C32.3322 42.2968 32.4942 42.2496 32.6939 42.1967C33.6417 41.946 34.9095 41.7463 36.5233 42.4032C37.2275 42.6898 37.7472 43.105 38.1087 43.6159C38.4656 44.1205 38.6386 44.6763 38.7191 45.2044C38.799 45.7282 38.7914 46.2501 38.7691 46.702C38.7601 46.8853 38.7496 47.0481 38.7399 47.1973C38.7238 47.4461 38.7101 47.6569 38.7101 47.8612C38.7101 48.1242 38.6896 48.9697 38.6616 50.1251C38.5916 53.0166 38.4745 57.8487 38.5138 60.3472L53.1103 61.1084L52.9218 33.5676C52.7374 33.6073 52.5255 33.6552 52.2858 33.7104C52.2377 33.7214 52.1888 33.7327 52.1392 33.7441C51.482 33.8955 50.6998 34.0758 49.9132 34.2103C49.0729 34.354 48.1797 34.4545 47.3867 34.4007C46.6204 34.3486 45.7691 34.1408 45.225 33.4885C45.0084 33.2288 44.8026 32.9713 44.6003 32.7181C43.9614 31.9184 43.3575 31.1626 42.5613 30.525C41.5654 29.7273 40.279 29.139 38.3096 29.139H37.9585L37.7272 28.8749C37.4422 28.5494 36.8978 28.1888 36.1783 27.8708C35.4748 27.5599 34.6769 27.3219 33.9546 27.202C33.2016 27.077 32.6481 27.1004 32.3678 27.2007C32.3429 27.2096 32.3238 27.2178 32.3092 27.2249Z" fill="#1E1F27"/>
<path d="M33.1632 36.4072C32.7113 36.4072 32.345 35.9493 32.345 35.3845C32.345 34.8196 32.7113 34.3618 33.1632 34.3618C33.6151 34.3618 33.9814 34.8196 33.9814 35.3845C33.9814 35.9493 33.6151 36.4072 33.1632 36.4072Z" fill="#1E1F27"/>
</g>
<g>
<path fill-rule="evenodd" clip-rule="evenodd" d="M29.8629 7.54827H8.66238C8.12285 7.54827 7.68548 7.98564 7.68548 8.52517V30.1371C7.68548 42.4612 17.6761 52.4517 30.0001 52.4517C42.3183 52.4517 52.3146 42.3985 52.3146 30.0688C52.3146 17.6633 42.2569 7.54827 29.8629 7.54827ZM8.66238 6C7.26776 6 6.13721 7.13056 6.13721 8.52517V30.1371C6.13721 43.3162 16.821 54 30.0001 54C43.1791 54 53.8629 43.2479 53.8629 30.0688C53.8629 16.8139 43.1177 6 29.8629 6H8.66238Z" fill="#1E1F27"/>
</g>
</svg>
